<svg id="Layer_1" data-name="Layer 1" xmlns="http://www.w3.org/2000/svg" viewBox="0 0 85.31 91.39"><defs><style>.cls-1{fill:none;}.cls-2{fill:#fff;}</style></defs><title>fortune-teller</title><path class="cls-1" d="M37.74,24.48a176.27,176.27,0,0,1,12,35.44l-.57-.48-22.32-55,.09-.19A187.38,187.38,0,0,1,37.74,24.48Z" transform="translate(-7.82 -3.58)"/><path class="cls-1" d="M78.59,9.28,50.28,60.11C54,51.37,58.17,42.82,62.73,34.46A286.38,286.38,0,0,1,78.59,9.28Z" transform="translate(-7.82 -3.58)"/><path class="cls-1" d="M26.63,4.82,48.76,59.06,20.83,34.65c-.09-.1-.19-.19-.28-.19a.32.32,0,0,0-.19.09L8.68,44.34Z" transform="translate(-7.82 -3.58)"/><path class="cls-1" d="M62.54,34.36c-4.47,8.08-8.55,16.53-12.26,25L53.8,20.4,79.26,7.86A263,263,0,0,0,62.54,34.36Z" transform="translate(-7.82 -3.58)"/><polygon class="cls-1" points="40.85 71.72 42.37 57.47 70.3 36.95 40.85 71.72"/><polygon class="cls-1" points="41.89 57 40.37 71.72 14.06 32.58 41.89 57"/><path class="cls-1" d="M49.81,59.25A179.83,179.83,0,0,0,37.93,24.39,198.71,198.71,0,0,0,27.29,4.44l26,15.86Z" transform="translate(-7.82 -3.58)"/><path class="cls-1" d="M79.54,39.68l3.71,54.63a.09.09,0,0,1-.1.09L48.76,76.07Z" transform="translate(-7.82 -3.58)"/><polygon class="cls-1" points="9.21 85.5 12.82 31.73 40.18 72.39 9.31 85.69 9.21 85.5"/><path class="cls-1" d="M8.39,45.29,20.45,35.22h0l-3.51,53L8.39,45.38C8.3,45.38,8.39,45.29,8.39,45.29Z" transform="translate(-7.82 -3.58)"/><polygon class="cls-1" points="71.91 36 84.74 47.5 75.62 89.87 71.91 36"/><path class="cls-1" d="M79.73,38.92h0a.36.36,0,0,1-.19-.09.09.09,0,0,0-.09.09h0l-29,21.28L79.64,7.86h.09L92.56,50.42Z" transform="translate(-7.82 -3.58)"/><path class="cls-2" d="M7.82,45.29h0a4.29,4.29,0,0,1,.1-.48L26.53,3.87a.26.26,0,0,1,.29-.29.21.21,0,0,1,.19.19l26.6,16.15L79.45,7.19c.09-.09.19-.19.28-.19s.19.1.29.19h0v.1L93,50.42c.1.09.1.19.1.38s-.1.38-.19.38l-9.41,43.6h0a.2.2,0,0,1-.19.19h-.09L48.38,76.35,17,89.84h-.09c-.19,0-.29-.19-.29-.38h0L7.82,45.38Zm40.85,30L78.12,40.63,50.19,61.06Zm1-14.73L21.88,36.17,48.19,75.31Zm-29.35-26c.09-.09.09-.09.19-.09s.19.09.28.19L48.76,59.06,26.63,4.82,8.68,44.34ZM49.14,59.44l.57.48a178.41,178.41,0,0,0-12-35.44A179.28,179.28,0,0,0,26.91,4.25l-.09.19Zm-11.21-35A179.83,179.83,0,0,1,49.81,59.25L53.32,20.3l-26-15.77A159.93,159.93,0,0,1,37.93,24.39Zm12.35,35a243.87,243.87,0,0,1,12.26-25A263,263,0,0,1,79.26,7.86L53.8,20.4Zm0,.76L78.59,9.28A265.85,265.85,0,0,0,62.82,34.46,257.68,257.68,0,0,0,50.28,60.11ZM79.64,7.86h0L50.47,60.11l29-21.19h0l.09-.09c.1,0,.1.09.19.09l.1-.09L92.56,50.42Zm.09,31.73,3.61,53.77,9.22-42.28Zm3.52,54.62L79.54,39.59,48.76,75.88,83.15,94.31A.1.1,0,0,1,83.25,94.21ZM20.64,35.31,17,89.08v.1l30.88-13.3Zm-.19-.09h0l-12.06,10v.19l8.55,42.85Z" transform="translate(-7.82 -3.58)"/></svg>